HIERARCHY
ROOT Hips
{
	OFFSET 42.664326 -0.343277 -6.840933
	CHANNELS 6 Xposition Yposition Zposition Zrotation Yrotation Xrotation
	JOINT LHipJoint
	{
		OFFSET -1.823915 -10.507826 -31.279638
		CHANNELS 3 Zrotation Yrotation Xrotation
		JOINT LeftUpLeg
		{
			OFFSET -34.466259 -79.846329 -106.766434
			CHANNELS 3 Zrotation Yrotation Xrotation
			JOINT LeftLeg
			{
				OFFSET -99.490761 -105.843498 -109.084686
				CHANNELS 3 Zrotation Yrotation Xrotation
				JOINT LeftFoot
				{
					OFFSET -99.754295 -99.535393 -99.301910
					CHANNELS 3 Zrotation Yrotation Xrotation
					JOINT LeftToeBase
					{
						OFFSET -110.677490 -106.912407 -101.074661
						CHANNELS 3 Zrotation Yrotation Xrotation
						End Site
						{
							OFFSET 0.000000 0.000000 0.000000
						}
					}
				}
			}
		}
	}
	JOINT RHipJoint
	{
		OFFSET -103.660500 -92.608482 -73.401917
		CHANNELS 3 Zrotation Yrotation Xrotation
		JOINT RightUpLeg
		{
			OFFSET -112.746902 -110.897934 -133.913025
			CHANNELS 3 Zrotation Yrotation Xrotation
			JOINT RightLeg
			{
				OFFSET -142.513702 -167.295990 -164.544327
				CHANNELS 3 Zrotation Yrotation Xrotation
				JOINT RightFoot
				{
					OFFSET -205.936508 -223.920654 -270.033295
					CHANNELS 3 Zrotation Yrotation Xrotation
					JOINT RightToeBase
					{
						OFFSET -281.329742 -293.913330 -300.749664
						CHANNELS 3 Zrotation Yrotation Xrotation
						End Site
						{
							OFFSET 0.000000 0.000000 0.000000
						}
					}
				}
			}
		}
	}
	JOINT LowerBack
	{
		OFFSET -303.117004 -291.686310 -276.972382
		CHANNELS 3 Zrotation Yrotation Xrotation
		JOINT Spine
		{
			OFFSET -283.086609 -288.901733 -281.686890
			CHANNELS 3 Zrotation Yrotation Xrotation
			JOINT Spine1
			{
				OFFSET -288.507050 -292.892517 -300.022522
				CHANNELS 3 Zrotation Yrotation Xrotation
				JOINT Neck
				{
					OFFSET -310.626190 -305.347504 -324.993073
					CHANNELS 3 Zrotation Yrotation Xrotation
					JOINT Neck1
					{
						OFFSET -256.954437 -259.735687 -248.221283
						CHANNELS 3 Zrotation Yrotation Xrotation
						JOINT Head
						{
							OFFSET -259.286102 -218.274033 -222.601059
							CHANNELS 3 Zrotation Yrotation Xrotation
							End Site
							{
								OFFSET 0.000000 0.000000 0.000000
							}
						}
					}
				}
				JOINT LeftShoulder
				{
					OFFSET -174.976410 -192.191132 -199.389954
					CHANNELS 3 Zrotation Yrotation Xrotation
					JOINT LeftArm
					{
						OFFSET -178.555527 -196.118149 -181.607910
						CHANNELS 3 Zrotation Yrotation Xrotation
						JOINT LeftForeArm
						{
							OFFSET -186.453827 -183.006271 -184.170517
							CHANNELS 3 Zrotation Yrotation Xrotation
							JOINT LeftHand
							{
								OFFSET -174.852936 -159.621902 -159.497787
								CHANNELS 3 Zrotation Yrotation Xrotation
								JOINT LeftFingerBase
								{
									OFFSET -153.559631 -162.759811 -113.838593
									CHANNELS 3 Zrotation Yrotation Xrotation
									JOINT LeftHandIndex1
									{
										OFFSET -115.527519 -84.364761 -75.331978
										CHANNELS 3 Zrotation Yrotation Xrotation
										End Site
										{
											OFFSET 0.000000 0.000000 0.000000
										}
									}
								}
								JOINT LThumb
								{
									OFFSET -36.814529 -31.129807 -19.938084
									CHANNELS 3 Zrotation Yrotation Xrotation
									End Site
									{
										OFFSET 0.000000 0.000000 0.000000
									}
								}
							}
						}
					}
				}
				JOINT RightShoulder
				{
					OFFSET -21.155352 -21.089985 -17.870403
					CHANNELS 3 Zrotation Yrotation Xrotation
					JOINT RightArm
					{
						OFFSET -22.844982 10.518131 -13.748478
						CHANNELS 3 Zrotation Yrotation Xrotation
						JOINT RightForeArm
						{
							OFFSET -19.074642 -11.703394 -10.365299
							CHANNELS 3 Zrotation Yrotation Xrotation
							JOINT RightHand
							{
								OFFSET -4.930409 2.726578 -16.030897
								CHANNELS 3 Zrotation Yrotation Xrotation
								JOINT RightFingerBase
								{
									OFFSET -5.383778 10.001835 8.070136
									CHANNELS 3 Zrotation Yrotation Xrotation
									JOINT RightHandIndex1
									{
										OFFSET 13.769735 8.612186 1.023412
										CHANNELS 3 Zrotation Yrotation Xrotation
										End Site
										{
											OFFSET 0.000000 0.000000 0.000000
										}
									}
								}
								JOINT RThumb
								{
									OFFSET -0.113921 -25.947956 -3.442407
									CHANNELS 3 Zrotation Yrotation Xrotation
									End Site
									{
										OFFSET 6.451529 0.498462 61.021782
									}
								}
							}
						}
					}
				}
			}
		}
	}
}
MOTION
Frames: 4
Frame Time: 0.008333
95.907623 10.978325 -371.086456 -24.997160 26.200693 94.505775 157.540085 101.045403 18.084852 87.733177 2.457626 57.947559 -22.445847 -2.138800 47.113129 -23.971924 -100.666519 -54.004005 -12.197051 -4.973662 49.893208 -199.573441 -46.507282 3.103832 133.644379 -26.923096 -95.209213 -14.724597 -16.114164 -83.680283 13.990771 -28.257381 -234.072525 -3.429025 -106.837563 223.624985 47.594543 -48.300163 -16.008415 -4.021615 -44.907475 66.459564 136.375137 -34.930504 -129.296021 76.774994 -23.245358 -7.561388 -62.173561 80.924377 324.018555 64.993927 18.299978 35.776829 54.658703 -35.193615 28.040859 204.163345 335.201538 840.492249 339.326355 30.970356 83.107529 12.709713 12.040040 202.912399 78.580872 128.207016 131.481888 -7.125000 0.000000 0.000000 453.112518 242.190247 328.238251 46.615677 150.201355 29.610899 198.803207 77.271782 398.716675 -16.346071 55.003830 70.199730 18.146572 8.687377 103.438210 368.894501 59.240234 175.601105 7.125000 0.000000 0.000000 -1501.012695 -1924.102539 -3492.196289
93.793320 10.547220 -389.167633 -29.412888 17.875877 86.678810 149.630112 95.681320 12.084476 80.936783 0.882545 87.377853 -12.548449 14.631428 104.442924 -10.268193 -39.851177 -5.320506 -6.530997 30.828621 163.453049 -170.397980 -34.148975 17.491688 173.509354 3.294930 -46.618111 -6.316658 -5.542418 -136.284378 -5.970529 -98.296440 -345.934753 -19.748962 -170.418640 -81.347488 -18.144367 -121.319550 -157.422424 -89.389328 -219.825928 -122.981766 -15.900161 -138.756119 -360.176239 -49.316219 -95.597382 -70.575058 -83.100739 31.517941 242.124878 32.998589 -7.234179 4.362575 32.038773 -45.174091 21.507877 146.446060 254.117645 890.504395 441.992218 149.768127 199.930359 17.926153 23.782316 307.014435 101.842239 37.197521 59.288589 -7.125000 0.000000 0.000000 172.595306 -36.506474 -51.757088 -3.520185 114.799057 18.111959 122.468079 -23.442638 169.586456 -144.912094 -35.232624 -6.591361 8.324555 -1.476184 -54.593719 -114.396759 -168.519455 -433.685089 7.125000 0.000000 0.000000 -107.962791 -845.964539 850.970032
91.226273 9.704893 -427.411865 -37.449932 1.028372 75.523506 141.022522 89.487862 7.629180 92.397552 20.410925 144.783493 3.435076 24.447212 157.264999 7.381401 17.230604 9.082683 -11.444999 -35.017689 -22.982910 -221.030243 -61.764145 -27.857494 27.099373 -135.701752 -242.427322 -36.526245 -9.301374 5.978508 18.414753 -106.199883 -215.505157 11.044843 -75.000008 118.795731 63.953461 -15.379599 24.232655 -13.488653 -84.536407 -9.148549 115.169197 -9.310699 -229.205734 -145.117310 -174.635254 -192.216736 -132.437897 -46.867592 90.480057 -72.497406 -114.625351 -261.680969 -193.481934 -156.755493 -18.702660 -155.764526 -399.635193 -485.692627 -352.376892 -149.034317 -102.977493 -0.532407 -14.351013 -113.776482 -121.363983 -391.781403 -164.532440 -7.125000 0.000000 0.000000 -63.104225 -206.317413 -250.261566 -20.886513 99.616867 10.522146 99.609268 18.980398 210.856537 -137.828415 -21.367702 7.870851 12.992639 11.098509 147.508667 635.035767 265.877960 658.693115 7.125000 0.000000 0.000000 2890.827637 436.703918 2532.288086
91.855316 10.006542 -415.546082 -32.827999 8.120176 83.307220 146.098038 85.098305 -2.806865 30.395399 -62.401192 -54.101837 -53.137951 -46.497643 -59.664268 -24.930222 -97.816254 -39.837318 -12.963591 -5.951963 127.313545 -144.970642 -25.651882 32.295341 230.262589 53.490917 67.270676 30.274326 69.014595 248.946365 72.000511 -37.442238 -141.809082 19.403584 -34.820354 275.469757 106.479210 47.531731 145.163467 63.474319 87.689445 201.603241 317.735107 210.452759 274.500427 311.988831 192.213821 255.671967 43.577747 366.599457 663.168396 259.278900 126.481880 121.604073 151.399155 109.235382 60.189838 276.073120 374.488068 445.466736 284.467163 212.952042 231.268005 12.753921 15.557158 348.723938 111.755035 -96.661125 44.858356 -7.125000 0.000000 0.000000 245.290619 -2.852634 -45.342102 -20.464731 94.921165 6.459627 72.630150 20.330536 213.241791 -150.126099 -44.020599 -70.051697 0.179142 -8.642352 -174.754608 -630.354065 -378.899048 -948.992126 7.125000 0.000000 0.000000 -56.684422 -1325.973267 -3175.167969
